M48
;DRILL file {KiCad (5.0.0)} date 12/04/19 16:08:45
;FORMAT={2:4/ absolute / inch / suppress trailing zeros}
FMAT,2
INCH,LZ
T1C0.0157
T2C0.0197
T3C0.0217
T4C0.0315
%
G90
G05
M72
T1
X027429Y-033571
X027472Y-039374
X027815Y-033634
X027849Y-040391
X028236Y-036457
X028287Y-040531
X028291Y-035035
X028303Y-036094
X028394Y-030882
X028497Y-039499
X028687Y-040069
X028894Y-032232
X028994Y-032734
X02902Y-039012
X029177Y-031882
X029457Y-03272
X02948Y-033591
X029516Y-037087
X029525Y-037705
X029606Y-036516
X029952Y-037648
X030042Y-037951
X030269Y-038496
X030443Y-038152
X030453Y-034063
X030469Y-032575
X030697Y-035425
X03072Y-038335
X031323Y-040053
X031323Y-040053
X031796Y-040103
X031992Y-041528
X032169Y-036232
X032185Y-035835
X032201Y-032898
X032283Y-041913
X032358Y-037811
X032402Y-040169
X032571Y-04128
X032657Y-032982
X032728Y-03826
X032799Y-041646
X032799Y-042098
X033Y-033181
X033311Y-038252
X03376Y-043403
X034096Y-034181
X034169Y-042271
X034185Y-041402
X034317Y-042636
X034358Y-038232
X034465Y-04178
X034465Y-04178
X034527Y-034186
X034803Y-034079
X034843Y-03787
X03489Y-035571
X035157Y-03413
X036394Y-036701
X036449Y-037898
X036457Y-038406
X036602Y-035614
X037016Y-038949
X037236Y-038286
X03728Y-038626
X037441Y-033594
X037484Y-032795
X037768Y-038286
X037839Y-032386
X037906Y-041571
X038122Y-043413
X038477Y-041731
X038649Y-043203
X03874Y-039567
X03889Y-032154
X038949Y-040307
X038988Y-043248
X039028Y-03989
X03926Y-034126
X03926Y-035039
X039264Y-033539
X039669Y-030886
X039669Y-043031
X039694Y-033831
X03985Y-039035
T4
X02737Y-041673
X028079Y-041673
X039323Y-041673
X040031Y-041673
X02737Y-032244
X028079Y-032244
X039323Y-032244
X040031Y-032244
T2
X027549Y-035539G85X027805Y-035539
G05
X027549Y-038295G85X027805Y-038295
G05
T3
X02874Y-035874G85X02874Y-035992
G05
X02874Y-037843G85X02874Y-037961
G05
T0
M30
