G04 #@! TF.GenerationSoftware,KiCad,Pcbnew,(5.0.0)*
G04 #@! TF.CreationDate,2019-12-04T16:08:42-05:00*
G04 #@! TF.ProjectId,Watchy,5761746368792E6B696361645F706362,rev?*
G04 #@! TF.SameCoordinates,Original*
G04 #@! TF.FileFunction,Soldermask,Bot*
G04 #@! TF.FilePolarity,Negative*
%FSLAX46Y46*%
G04 Gerber Fmt 4.6, Leading zero omitted, Abs format (unit mm)*
G04 Created by KiCad (PCBNEW (5.0.0)) date 12/04/19 16:08:42*
%MOMM*%
%LPD*%
G01*
G04 APERTURE LIST*
%ADD10R,1.300000X1.800000*%
%ADD11C,1.200000*%
%ADD12R,1.150000X1.200000*%
%ADD13R,1.600000X1.300000*%
%ADD14R,1.200000X1.200000*%
%ADD15R,0.900000X2.000000*%
%ADD16R,2.500000X3.400000*%
%ADD17R,1.200000X1.300000*%
%ADD18R,0.900000X1.300000*%
%ADD19R,1.300000X0.900000*%
%ADD20R,1.050000X1.460000*%
%ADD21R,1.950000X1.000000*%
%ADD22R,0.700000X1.700000*%
%ADD23R,2.400000X3.400000*%
%ADD24R,1.750000X0.800000*%
%ADD25O,1.350000X1.650000*%
%ADD26O,1.950000X1.400000*%
%ADD27R,2.000000X1.900000*%
%ADD28R,0.850000X1.100000*%
%ADD29R,1.050000X0.800000*%
%ADD30R,1.700000X1.700000*%
%ADD31R,1.250000X0.700000*%
%ADD32R,0.700000X1.250000*%
G04 APERTURE END LIST*
D10*
G04 #@! TO.C,SW1*
X100130000Y-104050000D03*
D11*
X101680000Y-105850000D03*
X99880000Y-105850000D03*
D10*
X101430000Y-104050000D03*
X101430000Y-107650000D03*
X100130000Y-107650000D03*
G04 #@! TD*
G04 #@! TO.C,SW4*
X71070000Y-107650000D03*
D11*
X69520000Y-105850000D03*
X71320000Y-105850000D03*
D10*
X69770000Y-107650000D03*
X69770000Y-104050000D03*
X71070000Y-104050000D03*
G04 #@! TD*
G04 #@! TO.C,SW2*
X100130000Y-80100000D03*
D11*
X101680000Y-81900000D03*
X99880000Y-81900000D03*
D10*
X101430000Y-80100000D03*
X101430000Y-83700000D03*
X100130000Y-83700000D03*
G04 #@! TD*
G04 #@! TO.C,SW3*
X71070000Y-83700000D03*
D11*
X69520000Y-81900000D03*
X71320000Y-81900000D03*
D10*
X69770000Y-83700000D03*
X69770000Y-80100000D03*
X71070000Y-80100000D03*
G04 #@! TD*
D12*
G04 #@! TO.C,C5*
X83120000Y-100610000D03*
X83120000Y-99110000D03*
G04 #@! TD*
G04 #@! TO.C,C16*
X78590000Y-84620000D03*
X78590000Y-83120000D03*
G04 #@! TD*
G04 #@! TO.C,C17*
X74940000Y-86960000D03*
X74940000Y-88460000D03*
G04 #@! TD*
G04 #@! TO.C,C20*
X93960000Y-89600000D03*
X93960000Y-91100000D03*
G04 #@! TD*
G04 #@! TO.C,C22*
X93940000Y-83840000D03*
X93940000Y-85340000D03*
G04 #@! TD*
D13*
G04 #@! TO.C,D4*
X73090000Y-88420000D03*
X73090000Y-85120000D03*
G04 #@! TD*
D14*
G04 #@! TO.C,D5*
X97610000Y-92400000D03*
X97610000Y-90800000D03*
G04 #@! TD*
D15*
G04 #@! TO.C,J3*
X98298000Y-104250000D03*
X97048000Y-104250000D03*
D16*
X94498000Y-101350000D03*
X100830000Y-101350000D03*
G04 #@! TD*
D17*
G04 #@! TO.C,Q3*
X81990000Y-88410000D03*
X80090000Y-88410000D03*
X81040000Y-86410000D03*
G04 #@! TD*
D18*
G04 #@! TO.C,R1*
X101510000Y-109300000D03*
X100010000Y-109300000D03*
G04 #@! TD*
D19*
G04 #@! TO.C,R4*
X80810000Y-95100000D03*
X80810000Y-93600000D03*
G04 #@! TD*
D18*
G04 #@! TO.C,R7*
X71200000Y-109300000D03*
X69700000Y-109300000D03*
G04 #@! TD*
D19*
G04 #@! TO.C,R12*
X83540000Y-88610000D03*
X83540000Y-87110000D03*
G04 #@! TD*
G04 #@! TO.C,R13*
X99110000Y-95100000D03*
X99110000Y-93600000D03*
G04 #@! TD*
G04 #@! TO.C,R14*
X97660000Y-95100000D03*
X97660000Y-93600000D03*
G04 #@! TD*
G04 #@! TO.C,R15*
X92500000Y-83990000D03*
X92500000Y-85490000D03*
G04 #@! TD*
D20*
G04 #@! TO.C,U2*
X78390000Y-86110000D03*
X76490000Y-86110000D03*
X76490000Y-88310000D03*
X77440000Y-88310000D03*
X78390000Y-88310000D03*
G04 #@! TD*
G04 #@! TO.C,U5*
X96060000Y-94800000D03*
X95110000Y-94800000D03*
X94160000Y-94800000D03*
X94160000Y-92600000D03*
X96060000Y-92600000D03*
G04 #@! TD*
D21*
G04 #@! TO.C,U6*
X90720000Y-88095000D03*
X90720000Y-86825000D03*
X90720000Y-85555000D03*
X90720000Y-84285000D03*
X85320000Y-84285000D03*
X85320000Y-85555000D03*
X85320000Y-86825000D03*
X85320000Y-88095000D03*
G04 #@! TD*
D12*
G04 #@! TO.C,C1*
X80420000Y-99110000D03*
X80420000Y-100610000D03*
G04 #@! TD*
G04 #@! TO.C,C2*
X81770000Y-100610000D03*
X81770000Y-99110000D03*
G04 #@! TD*
G04 #@! TO.C,C4*
X85560000Y-94950000D03*
X85560000Y-93450000D03*
G04 #@! TD*
G04 #@! TO.C,C6*
X82210000Y-94950000D03*
X82210000Y-93450000D03*
G04 #@! TD*
G04 #@! TO.C,C7*
X84470000Y-100610000D03*
X84470000Y-99110000D03*
G04 #@! TD*
G04 #@! TO.C,C8*
X85820000Y-99110000D03*
X85820000Y-100610000D03*
G04 #@! TD*
G04 #@! TO.C,C9*
X87170000Y-99110000D03*
X87170000Y-100610000D03*
G04 #@! TD*
G04 #@! TO.C,C10*
X88520000Y-99110000D03*
X88520000Y-100610000D03*
G04 #@! TD*
G04 #@! TO.C,C11*
X89870000Y-100610000D03*
X89870000Y-99110000D03*
G04 #@! TD*
G04 #@! TO.C,C12*
X91220000Y-99110000D03*
X91220000Y-100610000D03*
G04 #@! TD*
G04 #@! TO.C,C13*
X92570000Y-100610000D03*
X92570000Y-99110000D03*
G04 #@! TD*
G04 #@! TO.C,C14*
X79070000Y-100610000D03*
X79070000Y-99110000D03*
G04 #@! TD*
G04 #@! TO.C,C19*
X95300000Y-91100000D03*
X95300000Y-89600000D03*
G04 #@! TD*
D13*
G04 #@! TO.C,D1*
X92110000Y-91600000D03*
X92110000Y-94900000D03*
G04 #@! TD*
G04 #@! TO.C,D2*
X89760000Y-91600000D03*
X89760000Y-94900000D03*
G04 #@! TD*
G04 #@! TO.C,D3*
X87410000Y-91600000D03*
X87410000Y-94900000D03*
G04 #@! TD*
D22*
G04 #@! TO.C,J1*
X83840000Y-103470000D03*
X84340000Y-103470000D03*
X84840000Y-103470000D03*
X86840000Y-103470000D03*
X87340000Y-103470000D03*
X86340000Y-103470000D03*
X85840000Y-103470000D03*
X85340000Y-103470000D03*
X89340000Y-103470000D03*
X89840000Y-103470000D03*
X90340000Y-103470000D03*
X91340000Y-103470000D03*
X90840000Y-103470000D03*
X88840000Y-103470000D03*
X88340000Y-103470000D03*
X87840000Y-103470000D03*
X83340000Y-103470000D03*
X82840000Y-103470000D03*
X82340000Y-103470000D03*
X81840000Y-103470000D03*
X81340000Y-103470000D03*
X80840000Y-103470000D03*
X80340000Y-103470000D03*
X79840000Y-103470000D03*
D23*
X78190000Y-105820000D03*
X92990000Y-105820000D03*
G04 #@! TD*
D24*
G04 #@! TO.C,J2*
X73000000Y-95070000D03*
X73000000Y-94420000D03*
X73000000Y-93770000D03*
X73000000Y-93120000D03*
X73000000Y-92470000D03*
D25*
X73000000Y-96270000D03*
X73000000Y-91270000D03*
D26*
X70300000Y-97270000D03*
X70300000Y-90270000D03*
G04 #@! TD*
D27*
G04 #@! TO.C,L1*
X83880000Y-92670000D03*
X83880000Y-94670000D03*
G04 #@! TD*
D28*
G04 #@! TO.C,Q1*
X77300000Y-92900000D03*
X76650000Y-94900000D03*
X77950000Y-94900000D03*
G04 #@! TD*
D29*
G04 #@! TO.C,Q2*
X71690000Y-102150000D03*
X71690000Y-100850000D03*
X69790000Y-101500000D03*
X71690000Y-101500000D03*
X69790000Y-100850000D03*
X69790000Y-102150000D03*
G04 #@! TD*
D18*
G04 #@! TO.C,R3*
X101500000Y-78450000D03*
X100000000Y-78450000D03*
G04 #@! TD*
G04 #@! TO.C,R5*
X71140000Y-78450000D03*
X69640000Y-78450000D03*
G04 #@! TD*
D19*
G04 #@! TO.C,R6*
X79360000Y-95100000D03*
X79360000Y-93600000D03*
G04 #@! TD*
D30*
G04 #@! TO.C,U3*
X75070000Y-100460000D03*
X76370000Y-100460000D03*
X75070000Y-101760000D03*
X76370000Y-101760000D03*
D31*
X73770000Y-99860000D03*
X73770000Y-100360000D03*
X73770000Y-100860000D03*
X73770000Y-101360000D03*
X73770000Y-101860000D03*
X73770000Y-102360000D03*
D32*
X74470000Y-103060000D03*
X74970000Y-103060000D03*
X75470000Y-103060000D03*
X75970000Y-103060000D03*
X76470000Y-103060000D03*
X76970000Y-103060000D03*
D31*
X77670000Y-102360000D03*
X77670000Y-101860000D03*
X77670000Y-101360000D03*
X77670000Y-100860000D03*
X77670000Y-100360000D03*
X77670000Y-99860000D03*
D32*
X76970000Y-99160000D03*
X76470000Y-99160000D03*
X75970000Y-99160000D03*
X75470000Y-99160000D03*
X74970000Y-99160000D03*
X74470000Y-99160000D03*
G04 #@! TD*
M02*
