G04 #@! TF.GenerationSoftware,KiCad,Pcbnew,(5.0.0)*
G04 #@! TF.CreationDate,2019-12-04T16:08:42-05:00*
G04 #@! TF.ProjectId,Watchy,5761746368792E6B696361645F706362,rev?*
G04 #@! TF.SameCoordinates,Original*
G04 #@! TF.FileFunction,Legend,Top*
G04 #@! TF.FilePolarity,Positive*
%FSLAX46Y46*%
G04 Gerber Fmt 4.6, Leading zero omitted, Abs format (unit mm)*
G04 Created by KiCad (PCBNEW (5.0.0)) date 12/04/19 16:08:42*
%MOMM*%
%LPD*%
G01*
G04 APERTURE LIST*
%ADD10C,0.200000*%
%ADD11C,0.500000*%
%ADD12C,0.150000*%
%ADD13C,0.120000*%
%ADD14C,0.010000*%
%ADD15C,1.200000*%
%ADD16O,2.900000X1.300000*%
%ADD17O,1.300000X2.900000*%
%ADD18R,6.400000X6.400000*%
%ADD19R,1.150000X1.200000*%
%ADD20R,1.200000X1.150000*%
%ADD21R,1.500000X1.500000*%
%ADD22R,1.200000X1.300000*%
%ADD23R,1.300000X0.900000*%
%ADD24R,0.900000X1.300000*%
%ADD25R,0.775000X0.750000*%
%ADD26R,0.750000X0.775000*%
%ADD27O,1.350000X1.650000*%
%ADD28O,1.950000X1.400000*%
%ADD29R,2.000000X1.400000*%
G04 APERTURE END LIST*
D10*
X82460000Y-106470000D02*
G75*
G03X82460000Y-106470000I-5000000J0D01*
G01*
X73958489Y-85070000D02*
G75*
G03X73958489Y-85070000I-98489J0D01*
G01*
D11*
G04 #@! TO.C,U1*
X79297981Y-81296000D02*
G75*
G03X79297981Y-81296000I-283981J0D01*
G01*
D12*
X97920000Y-81150000D02*
X79920000Y-81150000D01*
X79920000Y-75150000D02*
X79920000Y-100650000D01*
X97920000Y-75150000D02*
X97920000Y-100650000D01*
X97920000Y-100650000D02*
X79920000Y-100650000D01*
X97920000Y-75150000D02*
X79920000Y-75150000D01*
D13*
G04 #@! TO.C,C3*
X75390000Y-84640000D02*
X75390000Y-83940000D01*
X76590000Y-83940000D02*
X76590000Y-84640000D01*
G04 #@! TO.C,C18*
X72280000Y-83460000D02*
X72980000Y-83460000D01*
X72980000Y-84660000D02*
X72280000Y-84660000D01*
G04 #@! TO.C,C21*
X90980000Y-104650000D02*
X90980000Y-105350000D01*
X89780000Y-105350000D02*
X89780000Y-104650000D01*
G04 #@! TO.C,D6*
X87530000Y-108000000D02*
X89530000Y-108000000D01*
X89530000Y-108000000D02*
X89530000Y-104150000D01*
X87530000Y-108000000D02*
X87530000Y-104150000D01*
G04 #@! TO.C,Q4*
X87160000Y-104540000D02*
X87160000Y-106000000D01*
X84000000Y-104540000D02*
X84000000Y-106700000D01*
X84000000Y-104540000D02*
X84930000Y-104540000D01*
X87160000Y-104540000D02*
X86230000Y-104540000D01*
G04 #@! TO.C,R2*
X76710000Y-84940000D02*
X76710000Y-83940000D01*
X78070000Y-83940000D02*
X78070000Y-84940000D01*
G04 #@! TO.C,R9*
X100060000Y-88990000D02*
X100060000Y-87990000D01*
X101420000Y-87990000D02*
X101420000Y-88990000D01*
G04 #@! TO.C,R10*
X76110000Y-91290000D02*
X76110000Y-90290000D01*
X77470000Y-90290000D02*
X77470000Y-91290000D01*
G04 #@! TO.C,R11*
X74660000Y-91290000D02*
X74660000Y-90290000D01*
X76020000Y-90290000D02*
X76020000Y-91290000D01*
G04 #@! TO.C,R16*
X84580000Y-107070000D02*
X85580000Y-107070000D01*
X85580000Y-108430000D02*
X84580000Y-108430000D01*
G04 #@! TO.C,U4*
X73480000Y-84910000D02*
X73480000Y-84910000D01*
X73480000Y-85410000D02*
X73480000Y-84910000D01*
X71780000Y-84910000D02*
X71780000Y-84910000D01*
X71280000Y-84910000D02*
X71780000Y-84910000D01*
X71280000Y-85410000D02*
X71280000Y-84910000D01*
X71280000Y-86610000D02*
X71280000Y-86610000D01*
X71280000Y-87110000D02*
X71280000Y-86610000D01*
X71780000Y-87110000D02*
X71280000Y-87110000D01*
X72980000Y-87110000D02*
X72980000Y-87110000D01*
X73480000Y-87110000D02*
X72980000Y-87110000D01*
X73480000Y-86610000D02*
X73480000Y-87110000D01*
G04 #@! TO.C,C15*
X72980000Y-88560000D02*
X72280000Y-88560000D01*
X72280000Y-87360000D02*
X72980000Y-87360000D01*
G04 #@! TO.C,R8*
X101420000Y-85440000D02*
X101420000Y-86440000D01*
X100060000Y-86440000D02*
X100060000Y-85440000D01*
D14*
G04 #@! TO.C,M1*
X97480000Y-103350000D02*
X95650000Y-103350000D01*
X97480000Y-107750000D02*
X97480000Y-103350000D01*
X95650000Y-107750000D02*
X97480000Y-107750000D01*
X95650000Y-103350000D02*
X95650000Y-107750000D01*
G04 #@! TO.C,U1*
D12*
X88158095Y-85422380D02*
X88158095Y-86231904D01*
X88205714Y-86327142D01*
X88253333Y-86374761D01*
X88348571Y-86422380D01*
X88539047Y-86422380D01*
X88634285Y-86374761D01*
X88681904Y-86327142D01*
X88729523Y-86231904D01*
X88729523Y-85422380D01*
X89729523Y-86422380D02*
X89158095Y-86422380D01*
X89443809Y-86422380D02*
X89443809Y-85422380D01*
X89348571Y-85565238D01*
X89253333Y-85660476D01*
X89158095Y-85708095D01*
G04 #@! TO.C,C3*
X76357142Y-81976666D02*
X76404761Y-82024285D01*
X76452380Y-82167142D01*
X76452380Y-82262380D01*
X76404761Y-82405238D01*
X76309523Y-82500476D01*
X76214285Y-82548095D01*
X76023809Y-82595714D01*
X75880952Y-82595714D01*
X75690476Y-82548095D01*
X75595238Y-82500476D01*
X75500000Y-82405238D01*
X75452380Y-82262380D01*
X75452380Y-82167142D01*
X75500000Y-82024285D01*
X75547619Y-81976666D01*
X75452380Y-81643333D02*
X75452380Y-81024285D01*
X75833333Y-81357619D01*
X75833333Y-81214761D01*
X75880952Y-81119523D01*
X75928571Y-81071904D01*
X76023809Y-81024285D01*
X76261904Y-81024285D01*
X76357142Y-81071904D01*
X76404761Y-81119523D01*
X76452380Y-81214761D01*
X76452380Y-81500476D01*
X76404761Y-81595714D01*
X76357142Y-81643333D01*
G04 #@! TO.C,C18*
X72757142Y-83067142D02*
X72709523Y-83114761D01*
X72566666Y-83162380D01*
X72471428Y-83162380D01*
X72328571Y-83114761D01*
X72233333Y-83019523D01*
X72185714Y-82924285D01*
X72138095Y-82733809D01*
X72138095Y-82590952D01*
X72185714Y-82400476D01*
X72233333Y-82305238D01*
X72328571Y-82210000D01*
X72471428Y-82162380D01*
X72566666Y-82162380D01*
X72709523Y-82210000D01*
X72757142Y-82257619D01*
X73709523Y-83162380D02*
X73138095Y-83162380D01*
X73423809Y-83162380D02*
X73423809Y-82162380D01*
X73328571Y-82305238D01*
X73233333Y-82400476D01*
X73138095Y-82448095D01*
X74280952Y-82590952D02*
X74185714Y-82543333D01*
X74138095Y-82495714D01*
X74090476Y-82400476D01*
X74090476Y-82352857D01*
X74138095Y-82257619D01*
X74185714Y-82210000D01*
X74280952Y-82162380D01*
X74471428Y-82162380D01*
X74566666Y-82210000D01*
X74614285Y-82257619D01*
X74661904Y-82352857D01*
X74661904Y-82400476D01*
X74614285Y-82495714D01*
X74566666Y-82543333D01*
X74471428Y-82590952D01*
X74280952Y-82590952D01*
X74185714Y-82638571D01*
X74138095Y-82686190D01*
X74090476Y-82781428D01*
X74090476Y-82971904D01*
X74138095Y-83067142D01*
X74185714Y-83114761D01*
X74280952Y-83162380D01*
X74471428Y-83162380D01*
X74566666Y-83114761D01*
X74614285Y-83067142D01*
X74661904Y-82971904D01*
X74661904Y-82781428D01*
X74614285Y-82686190D01*
X74566666Y-82638571D01*
X74471428Y-82590952D01*
G04 #@! TO.C,C21*
X90757142Y-108552857D02*
X90804761Y-108600476D01*
X90852380Y-108743333D01*
X90852380Y-108838571D01*
X90804761Y-108981428D01*
X90709523Y-109076666D01*
X90614285Y-109124285D01*
X90423809Y-109171904D01*
X90280952Y-109171904D01*
X90090476Y-109124285D01*
X89995238Y-109076666D01*
X89900000Y-108981428D01*
X89852380Y-108838571D01*
X89852380Y-108743333D01*
X89900000Y-108600476D01*
X89947619Y-108552857D01*
X89947619Y-108171904D02*
X89900000Y-108124285D01*
X89852380Y-108029047D01*
X89852380Y-107790952D01*
X89900000Y-107695714D01*
X89947619Y-107648095D01*
X90042857Y-107600476D01*
X90138095Y-107600476D01*
X90280952Y-107648095D01*
X90852380Y-108219523D01*
X90852380Y-107600476D01*
X90852380Y-106648095D02*
X90852380Y-107219523D01*
X90852380Y-106933809D02*
X89852380Y-106933809D01*
X89995238Y-107029047D01*
X90090476Y-107124285D01*
X90138095Y-107219523D01*
G04 #@! TO.C,D6*
X88952380Y-109848095D02*
X87952380Y-109848095D01*
X87952380Y-109610000D01*
X88000000Y-109467142D01*
X88095238Y-109371904D01*
X88190476Y-109324285D01*
X88380952Y-109276666D01*
X88523809Y-109276666D01*
X88714285Y-109324285D01*
X88809523Y-109371904D01*
X88904761Y-109467142D01*
X88952380Y-109610000D01*
X88952380Y-109848095D01*
X87952380Y-108419523D02*
X87952380Y-108610000D01*
X88000000Y-108705238D01*
X88047619Y-108752857D01*
X88190476Y-108848095D01*
X88380952Y-108895714D01*
X88761904Y-108895714D01*
X88857142Y-108848095D01*
X88904761Y-108800476D01*
X88952380Y-108705238D01*
X88952380Y-108514761D01*
X88904761Y-108419523D01*
X88857142Y-108371904D01*
X88761904Y-108324285D01*
X88523809Y-108324285D01*
X88428571Y-108371904D01*
X88380952Y-108419523D01*
X88333333Y-108514761D01*
X88333333Y-108705238D01*
X88380952Y-108800476D01*
X88428571Y-108848095D01*
X88523809Y-108895714D01*
G04 #@! TO.C,Q4*
X85504761Y-103457619D02*
X85409523Y-103410000D01*
X85314285Y-103314761D01*
X85171428Y-103171904D01*
X85076190Y-103124285D01*
X84980952Y-103124285D01*
X85028571Y-103362380D02*
X84933333Y-103314761D01*
X84838095Y-103219523D01*
X84790476Y-103029047D01*
X84790476Y-102695714D01*
X84838095Y-102505238D01*
X84933333Y-102410000D01*
X85028571Y-102362380D01*
X85219047Y-102362380D01*
X85314285Y-102410000D01*
X85409523Y-102505238D01*
X85457142Y-102695714D01*
X85457142Y-103029047D01*
X85409523Y-103219523D01*
X85314285Y-103314761D01*
X85219047Y-103362380D01*
X85028571Y-103362380D01*
X86314285Y-102695714D02*
X86314285Y-103362380D01*
X86076190Y-102314761D02*
X85838095Y-103029047D01*
X86457142Y-103029047D01*
G04 #@! TO.C,R2*
X77852380Y-81976666D02*
X77376190Y-82310000D01*
X77852380Y-82548095D02*
X76852380Y-82548095D01*
X76852380Y-82167142D01*
X76900000Y-82071904D01*
X76947619Y-82024285D01*
X77042857Y-81976666D01*
X77185714Y-81976666D01*
X77280952Y-82024285D01*
X77328571Y-82071904D01*
X77376190Y-82167142D01*
X77376190Y-82548095D01*
X76947619Y-81595714D02*
X76900000Y-81548095D01*
X76852380Y-81452857D01*
X76852380Y-81214761D01*
X76900000Y-81119523D01*
X76947619Y-81071904D01*
X77042857Y-81024285D01*
X77138095Y-81024285D01*
X77280952Y-81071904D01*
X77852380Y-81643333D01*
X77852380Y-81024285D01*
G04 #@! TO.C,R9*
X101152380Y-90876666D02*
X100676190Y-91210000D01*
X101152380Y-91448095D02*
X100152380Y-91448095D01*
X100152380Y-91067142D01*
X100200000Y-90971904D01*
X100247619Y-90924285D01*
X100342857Y-90876666D01*
X100485714Y-90876666D01*
X100580952Y-90924285D01*
X100628571Y-90971904D01*
X100676190Y-91067142D01*
X100676190Y-91448095D01*
X101152380Y-90400476D02*
X101152380Y-90210000D01*
X101104761Y-90114761D01*
X101057142Y-90067142D01*
X100914285Y-89971904D01*
X100723809Y-89924285D01*
X100342857Y-89924285D01*
X100247619Y-89971904D01*
X100200000Y-90019523D01*
X100152380Y-90114761D01*
X100152380Y-90305238D01*
X100200000Y-90400476D01*
X100247619Y-90448095D01*
X100342857Y-90495714D01*
X100580952Y-90495714D01*
X100676190Y-90448095D01*
X100723809Y-90400476D01*
X100771428Y-90305238D01*
X100771428Y-90114761D01*
X100723809Y-90019523D01*
X100676190Y-89971904D01*
X100580952Y-89924285D01*
G04 #@! TO.C,R10*
X77252380Y-94152857D02*
X76776190Y-94486190D01*
X77252380Y-94724285D02*
X76252380Y-94724285D01*
X76252380Y-94343333D01*
X76300000Y-94248095D01*
X76347619Y-94200476D01*
X76442857Y-94152857D01*
X76585714Y-94152857D01*
X76680952Y-94200476D01*
X76728571Y-94248095D01*
X76776190Y-94343333D01*
X76776190Y-94724285D01*
X77252380Y-93200476D02*
X77252380Y-93771904D01*
X77252380Y-93486190D02*
X76252380Y-93486190D01*
X76395238Y-93581428D01*
X76490476Y-93676666D01*
X76538095Y-93771904D01*
X76252380Y-92581428D02*
X76252380Y-92486190D01*
X76300000Y-92390952D01*
X76347619Y-92343333D01*
X76442857Y-92295714D01*
X76633333Y-92248095D01*
X76871428Y-92248095D01*
X77061904Y-92295714D01*
X77157142Y-92343333D01*
X77204761Y-92390952D01*
X77252380Y-92486190D01*
X77252380Y-92581428D01*
X77204761Y-92676666D01*
X77157142Y-92724285D01*
X77061904Y-92771904D01*
X76871428Y-92819523D01*
X76633333Y-92819523D01*
X76442857Y-92771904D01*
X76347619Y-92724285D01*
X76300000Y-92676666D01*
X76252380Y-92581428D01*
G04 #@! TO.C,R11*
X75752380Y-94152857D02*
X75276190Y-94486190D01*
X75752380Y-94724285D02*
X74752380Y-94724285D01*
X74752380Y-94343333D01*
X74800000Y-94248095D01*
X74847619Y-94200476D01*
X74942857Y-94152857D01*
X75085714Y-94152857D01*
X75180952Y-94200476D01*
X75228571Y-94248095D01*
X75276190Y-94343333D01*
X75276190Y-94724285D01*
X75752380Y-93200476D02*
X75752380Y-93771904D01*
X75752380Y-93486190D02*
X74752380Y-93486190D01*
X74895238Y-93581428D01*
X74990476Y-93676666D01*
X75038095Y-93771904D01*
X75752380Y-92248095D02*
X75752380Y-92819523D01*
X75752380Y-92533809D02*
X74752380Y-92533809D01*
X74895238Y-92629047D01*
X74990476Y-92724285D01*
X75038095Y-92819523D01*
G04 #@! TO.C,R16*
X84457142Y-109662380D02*
X84123809Y-109186190D01*
X83885714Y-109662380D02*
X83885714Y-108662380D01*
X84266666Y-108662380D01*
X84361904Y-108710000D01*
X84409523Y-108757619D01*
X84457142Y-108852857D01*
X84457142Y-108995714D01*
X84409523Y-109090952D01*
X84361904Y-109138571D01*
X84266666Y-109186190D01*
X83885714Y-109186190D01*
X85409523Y-109662380D02*
X84838095Y-109662380D01*
X85123809Y-109662380D02*
X85123809Y-108662380D01*
X85028571Y-108805238D01*
X84933333Y-108900476D01*
X84838095Y-108948095D01*
X86266666Y-108662380D02*
X86076190Y-108662380D01*
X85980952Y-108710000D01*
X85933333Y-108757619D01*
X85838095Y-108900476D01*
X85790476Y-109090952D01*
X85790476Y-109471904D01*
X85838095Y-109567142D01*
X85885714Y-109614761D01*
X85980952Y-109662380D01*
X86171428Y-109662380D01*
X86266666Y-109614761D01*
X86314285Y-109567142D01*
X86361904Y-109471904D01*
X86361904Y-109233809D01*
X86314285Y-109138571D01*
X86266666Y-109090952D01*
X86171428Y-109043333D01*
X85980952Y-109043333D01*
X85885714Y-109090952D01*
X85838095Y-109138571D01*
X85790476Y-109233809D01*
G04 #@! TO.C,U4*
X69852380Y-86771904D02*
X70661904Y-86771904D01*
X70757142Y-86724285D01*
X70804761Y-86676666D01*
X70852380Y-86581428D01*
X70852380Y-86390952D01*
X70804761Y-86295714D01*
X70757142Y-86248095D01*
X70661904Y-86200476D01*
X69852380Y-86200476D01*
X70185714Y-85295714D02*
X70852380Y-85295714D01*
X69804761Y-85533809D02*
X70519047Y-85771904D01*
X70519047Y-85152857D01*
G04 #@! TO.C,C15*
X71957142Y-89767142D02*
X71909523Y-89814761D01*
X71766666Y-89862380D01*
X71671428Y-89862380D01*
X71528571Y-89814761D01*
X71433333Y-89719523D01*
X71385714Y-89624285D01*
X71338095Y-89433809D01*
X71338095Y-89290952D01*
X71385714Y-89100476D01*
X71433333Y-89005238D01*
X71528571Y-88910000D01*
X71671428Y-88862380D01*
X71766666Y-88862380D01*
X71909523Y-88910000D01*
X71957142Y-88957619D01*
X72909523Y-89862380D02*
X72338095Y-89862380D01*
X72623809Y-89862380D02*
X72623809Y-88862380D01*
X72528571Y-89005238D01*
X72433333Y-89100476D01*
X72338095Y-89148095D01*
X73814285Y-88862380D02*
X73338095Y-88862380D01*
X73290476Y-89338571D01*
X73338095Y-89290952D01*
X73433333Y-89243333D01*
X73671428Y-89243333D01*
X73766666Y-89290952D01*
X73814285Y-89338571D01*
X73861904Y-89433809D01*
X73861904Y-89671904D01*
X73814285Y-89767142D01*
X73766666Y-89814761D01*
X73671428Y-89862380D01*
X73433333Y-89862380D01*
X73338095Y-89814761D01*
X73290476Y-89767142D01*
G04 #@! TO.C,R8*
X101152380Y-83876666D02*
X100676190Y-84210000D01*
X101152380Y-84448095D02*
X100152380Y-84448095D01*
X100152380Y-84067142D01*
X100200000Y-83971904D01*
X100247619Y-83924285D01*
X100342857Y-83876666D01*
X100485714Y-83876666D01*
X100580952Y-83924285D01*
X100628571Y-83971904D01*
X100676190Y-84067142D01*
X100676190Y-84448095D01*
X100580952Y-83305238D02*
X100533333Y-83400476D01*
X100485714Y-83448095D01*
X100390476Y-83495714D01*
X100342857Y-83495714D01*
X100247619Y-83448095D01*
X100200000Y-83400476D01*
X100152380Y-83305238D01*
X100152380Y-83114761D01*
X100200000Y-83019523D01*
X100247619Y-82971904D01*
X100342857Y-82924285D01*
X100390476Y-82924285D01*
X100485714Y-82971904D01*
X100533333Y-83019523D01*
X100580952Y-83114761D01*
X100580952Y-83305238D01*
X100628571Y-83400476D01*
X100676190Y-83448095D01*
X100771428Y-83495714D01*
X100961904Y-83495714D01*
X101057142Y-83448095D01*
X101104761Y-83400476D01*
X101152380Y-83305238D01*
X101152380Y-83114761D01*
X101104761Y-83019523D01*
X101057142Y-82971904D01*
X100961904Y-82924285D01*
X100771428Y-82924285D01*
X100676190Y-82971904D01*
X100628571Y-83019523D01*
X100580952Y-83114761D01*
G04 #@! TO.C,M1*
X96952380Y-106319523D02*
X95952380Y-106319523D01*
X96666666Y-105986190D01*
X95952380Y-105652857D01*
X96952380Y-105652857D01*
X96952380Y-104652857D02*
X96952380Y-105224285D01*
X96952380Y-104938571D02*
X95952380Y-104938571D01*
X96095238Y-105033809D01*
X96190476Y-105129047D01*
X96238095Y-105224285D01*
X77066666Y-106962380D02*
X77066666Y-105962380D01*
X77400000Y-106676666D01*
X77733333Y-105962380D01*
X77733333Y-106962380D01*
G04 #@! TD*
%LPC*%
D15*
G04 #@! TO.C,SW1*
X101680000Y-105850000D03*
X99880000Y-105850000D03*
G04 #@! TD*
D16*
G04 #@! TO.C,U1*
X97920000Y-82650000D03*
X97920000Y-83920000D03*
X97920000Y-85190000D03*
X97920000Y-86460000D03*
X97920000Y-87730000D03*
X97920000Y-89000000D03*
X97920000Y-90270000D03*
X97920000Y-91540000D03*
X97920000Y-92810000D03*
X97920000Y-94080000D03*
X97920000Y-95350000D03*
X97920000Y-96620000D03*
X97920000Y-97890000D03*
X97920000Y-99160000D03*
D17*
X94635000Y-100650000D03*
X93365000Y-100650000D03*
X92095000Y-100650000D03*
X90825000Y-100650000D03*
X89555000Y-100650000D03*
X88285000Y-100650000D03*
X87015000Y-100650000D03*
X85745000Y-100650000D03*
X84475000Y-100650000D03*
X83205000Y-100650000D03*
D16*
X79920000Y-99160000D03*
X79920000Y-97890000D03*
X79920000Y-96620000D03*
X79920000Y-95350000D03*
X79920000Y-94080000D03*
X79920000Y-92810000D03*
X79920000Y-91540000D03*
X79920000Y-90270000D03*
X79920000Y-89000000D03*
X79920000Y-87730000D03*
X79920000Y-86460000D03*
X79920000Y-85190000D03*
X79920000Y-83920000D03*
X79920000Y-82650000D03*
D18*
X88620000Y-90350000D03*
G04 #@! TD*
D15*
G04 #@! TO.C,SW4*
X69520000Y-105850000D03*
X71320000Y-105850000D03*
G04 #@! TD*
G04 #@! TO.C,SW2*
X101680000Y-81900000D03*
X99880000Y-81900000D03*
G04 #@! TD*
G04 #@! TO.C,SW3*
X69520000Y-81900000D03*
X71320000Y-81900000D03*
G04 #@! TD*
D19*
G04 #@! TO.C,C3*
X75990000Y-85040000D03*
X75990000Y-83540000D03*
G04 #@! TD*
D20*
G04 #@! TO.C,C18*
X71880000Y-84060000D03*
X73380000Y-84060000D03*
G04 #@! TD*
D19*
G04 #@! TO.C,C21*
X90380000Y-104250000D03*
X90380000Y-105750000D03*
G04 #@! TD*
D21*
G04 #@! TO.C,D6*
X88530000Y-107200000D03*
X88530000Y-104400000D03*
G04 #@! TD*
D22*
G04 #@! TO.C,Q4*
X85580000Y-104300000D03*
X86530000Y-106300000D03*
X84630000Y-106300000D03*
G04 #@! TD*
D23*
G04 #@! TO.C,R2*
X77390000Y-83690000D03*
X77390000Y-85190000D03*
G04 #@! TD*
G04 #@! TO.C,R9*
X100740000Y-87740000D03*
X100740000Y-89240000D03*
G04 #@! TD*
G04 #@! TO.C,R10*
X76790000Y-90040000D03*
X76790000Y-91540000D03*
G04 #@! TD*
G04 #@! TO.C,R11*
X75340000Y-90040000D03*
X75340000Y-91540000D03*
G04 #@! TD*
D24*
G04 #@! TO.C,R16*
X85830000Y-107750000D03*
X84330000Y-107750000D03*
G04 #@! TD*
D25*
G04 #@! TO.C,U4*
X73142500Y-85760000D03*
X73142500Y-86260000D03*
X71617500Y-86260000D03*
X71617500Y-85760000D03*
D26*
X73130000Y-86772500D03*
X73130000Y-85247500D03*
X71630000Y-86772500D03*
X71630000Y-85247500D03*
X72130000Y-86772500D03*
X72630000Y-86772500D03*
X72130000Y-85247500D03*
X72630000Y-85247500D03*
G04 #@! TD*
D20*
G04 #@! TO.C,C15*
X73380000Y-87960000D03*
X71880000Y-87960000D03*
G04 #@! TD*
D27*
G04 #@! TO.C,J2*
X73000000Y-96270000D03*
X73000000Y-91270000D03*
D28*
X70300000Y-97270000D03*
X70300000Y-90270000D03*
G04 #@! TD*
D23*
G04 #@! TO.C,R8*
X100740000Y-86690000D03*
X100740000Y-85190000D03*
G04 #@! TD*
D29*
G04 #@! TO.C,M1*
X96480000Y-103950000D03*
X96480000Y-107150000D03*
G04 #@! TD*
M02*
