G04 #@! TF.GenerationSoftware,KiCad,Pcbnew,(5.0.0)*
G04 #@! TF.CreationDate,2019-12-04T16:08:42-05:00*
G04 #@! TF.ProjectId,Watchy,5761746368792E6B696361645F706362,rev?*
G04 #@! TF.SameCoordinates,Original*
G04 #@! TF.FileFunction,Soldermask,Top*
G04 #@! TF.FilePolarity,Negative*
%FSLAX46Y46*%
G04 Gerber Fmt 4.6, Leading zero omitted, Abs format (unit mm)*
G04 Created by KiCad (PCBNEW (5.0.0)) date 12/04/19 16:08:42*
%MOMM*%
%LPD*%
G01*
G04 APERTURE LIST*
%ADD10C,1.200000*%
%ADD11O,2.900000X1.300000*%
%ADD12O,1.300000X2.900000*%
%ADD13R,6.400000X6.400000*%
%ADD14R,1.150000X1.200000*%
%ADD15R,1.200000X1.150000*%
%ADD16R,1.500000X1.500000*%
%ADD17R,1.200000X1.300000*%
%ADD18R,1.300000X0.900000*%
%ADD19R,0.900000X1.300000*%
%ADD20R,0.775000X0.750000*%
%ADD21R,0.750000X0.775000*%
%ADD22O,1.350000X1.650000*%
%ADD23O,1.950000X1.400000*%
%ADD24R,2.000000X1.400000*%
G04 APERTURE END LIST*
D10*
G04 #@! TO.C,SW1*
X101680000Y-105850000D03*
X99880000Y-105850000D03*
G04 #@! TD*
D11*
G04 #@! TO.C,U1*
X97920000Y-82650000D03*
X97920000Y-83920000D03*
X97920000Y-85190000D03*
X97920000Y-86460000D03*
X97920000Y-87730000D03*
X97920000Y-89000000D03*
X97920000Y-90270000D03*
X97920000Y-91540000D03*
X97920000Y-92810000D03*
X97920000Y-94080000D03*
X97920000Y-95350000D03*
X97920000Y-96620000D03*
X97920000Y-97890000D03*
X97920000Y-99160000D03*
D12*
X94635000Y-100650000D03*
X93365000Y-100650000D03*
X92095000Y-100650000D03*
X90825000Y-100650000D03*
X89555000Y-100650000D03*
X88285000Y-100650000D03*
X87015000Y-100650000D03*
X85745000Y-100650000D03*
X84475000Y-100650000D03*
X83205000Y-100650000D03*
D11*
X79920000Y-99160000D03*
X79920000Y-97890000D03*
X79920000Y-96620000D03*
X79920000Y-95350000D03*
X79920000Y-94080000D03*
X79920000Y-92810000D03*
X79920000Y-91540000D03*
X79920000Y-90270000D03*
X79920000Y-89000000D03*
X79920000Y-87730000D03*
X79920000Y-86460000D03*
X79920000Y-85190000D03*
X79920000Y-83920000D03*
X79920000Y-82650000D03*
D13*
X88620000Y-90350000D03*
G04 #@! TD*
D10*
G04 #@! TO.C,SW4*
X69520000Y-105850000D03*
X71320000Y-105850000D03*
G04 #@! TD*
G04 #@! TO.C,SW2*
X101680000Y-81900000D03*
X99880000Y-81900000D03*
G04 #@! TD*
G04 #@! TO.C,SW3*
X69520000Y-81900000D03*
X71320000Y-81900000D03*
G04 #@! TD*
D14*
G04 #@! TO.C,C3*
X75990000Y-85040000D03*
X75990000Y-83540000D03*
G04 #@! TD*
D15*
G04 #@! TO.C,C18*
X71880000Y-84060000D03*
X73380000Y-84060000D03*
G04 #@! TD*
D14*
G04 #@! TO.C,C21*
X90380000Y-104250000D03*
X90380000Y-105750000D03*
G04 #@! TD*
D16*
G04 #@! TO.C,D6*
X88530000Y-107200000D03*
X88530000Y-104400000D03*
G04 #@! TD*
D17*
G04 #@! TO.C,Q4*
X85580000Y-104300000D03*
X86530000Y-106300000D03*
X84630000Y-106300000D03*
G04 #@! TD*
D18*
G04 #@! TO.C,R2*
X77390000Y-83690000D03*
X77390000Y-85190000D03*
G04 #@! TD*
G04 #@! TO.C,R9*
X100740000Y-87740000D03*
X100740000Y-89240000D03*
G04 #@! TD*
G04 #@! TO.C,R10*
X76790000Y-90040000D03*
X76790000Y-91540000D03*
G04 #@! TD*
G04 #@! TO.C,R11*
X75340000Y-90040000D03*
X75340000Y-91540000D03*
G04 #@! TD*
D19*
G04 #@! TO.C,R16*
X85830000Y-107750000D03*
X84330000Y-107750000D03*
G04 #@! TD*
D20*
G04 #@! TO.C,U4*
X73142500Y-85760000D03*
X73142500Y-86260000D03*
X71617500Y-86260000D03*
X71617500Y-85760000D03*
D21*
X73130000Y-86772500D03*
X73130000Y-85247500D03*
X71630000Y-86772500D03*
X71630000Y-85247500D03*
X72130000Y-86772500D03*
X72630000Y-86772500D03*
X72130000Y-85247500D03*
X72630000Y-85247500D03*
G04 #@! TD*
D15*
G04 #@! TO.C,C15*
X73380000Y-87960000D03*
X71880000Y-87960000D03*
G04 #@! TD*
D22*
G04 #@! TO.C,J2*
X73000000Y-96270000D03*
X73000000Y-91270000D03*
D23*
X70300000Y-97270000D03*
X70300000Y-90270000D03*
G04 #@! TD*
D18*
G04 #@! TO.C,R8*
X100740000Y-86690000D03*
X100740000Y-85190000D03*
G04 #@! TD*
D24*
G04 #@! TO.C,M1*
X96480000Y-103950000D03*
X96480000Y-107150000D03*
G04 #@! TD*
M02*
